<svg width="50" height="50" viewBox="0 0 70 71" fill="none" xmlns="http://www.w3.org/2000/svg">
<circle cx="35" cy="35.3959" r="25" fill="#FFC300"/>
<circle cx="35" cy="35.3959" r="30" stroke="#7C05BF" stroke-opacity="0.3" stroke-width="10"/>
<path d="M39.3431 38.3558H41.5271V40.0718C41.5271 40.2318 41.4751 40.3718 41.3711 40.4918C41.2671 40.6038 41.1151 40.6598 40.9151 40.6598H39.3431V44.8958H36.7511V40.6598H29.4311C29.2311 40.6598 29.0551 40.5998 28.9031 40.4798C28.7511 40.3518 28.6551 40.1958 28.6151 40.0118L28.3151 38.5118L36.5351 27.5318H39.3431V38.3558ZM36.7511 32.6798C36.7511 32.4238 36.7591 32.1478 36.7751 31.8518C36.7911 31.5558 36.8191 31.2478 36.8591 30.9278L31.4711 38.3558H36.7511V32.6798Z" fill="black"/>
</svg>
