<svg width="50" height="50" viewBox="0 0 70 71" fill="none" xmlns="http://www.w3.org/2000/svg">
<circle cx="35" cy="35.896" r="25" fill="#FFC300"/>
<circle cx="35" cy="35.896" r="30" stroke="#7C05BF" stroke-opacity="0.3" stroke-width="10"/>
<path d="M35.2631 27.8519C36.0631 27.8519 36.7951 27.9719 37.4591 28.2119C38.1231 28.4439 38.6911 28.7759 39.1631 29.2079C39.6351 29.6399 40.0031 30.1599 40.2671 30.7679C40.5311 31.3759 40.6631 32.0519 40.6631 32.7959C40.6631 33.4359 40.5671 34.0279 40.3751 34.5719C40.1911 35.1159 39.9391 35.6359 39.6191 36.1319C39.3071 36.6279 38.9391 37.1079 38.5151 37.5719C38.0911 38.0359 37.6471 38.5079 37.1831 38.9879L33.2711 42.9839C33.6551 42.8719 34.0311 42.7879 34.3991 42.7319C34.7671 42.6679 35.1191 42.6359 35.4551 42.6359H39.9071C40.2271 42.6359 40.4791 42.7279 40.6631 42.9119C40.8551 43.0879 40.9511 43.3239 40.9511 43.6199V45.3959H29.0471V44.4119C29.0471 44.2119 29.0871 44.0039 29.1671 43.7879C29.2551 43.5719 29.3911 43.3719 29.5751 43.1879L34.8431 37.9079C35.2831 37.4599 35.6751 37.0319 36.0191 36.6239C36.3711 36.2159 36.6631 35.8119 36.8951 35.4119C37.1351 35.0119 37.3151 34.6079 37.4351 34.1999C37.5631 33.7839 37.6271 33.3479 37.6271 32.8919C37.6271 32.4759 37.5671 32.1119 37.4471 31.7999C37.3271 31.4799 37.1551 31.2119 36.9311 30.9959C36.7071 30.7799 36.4391 30.6199 36.1271 30.5159C35.8231 30.4039 35.4791 30.3479 35.0951 30.3479C34.3831 30.3479 33.7951 30.5279 33.3311 30.8879C32.8751 31.2479 32.5551 31.7319 32.3711 32.3399C32.2831 32.6439 32.1511 32.8639 31.9751 32.9999C31.7991 33.1279 31.5751 33.1919 31.3031 33.1919C31.1831 33.1919 31.0511 33.1799 30.9071 33.1559L29.3471 32.8799C29.4671 32.0479 29.6991 31.3199 30.0431 30.6959C30.3871 30.0639 30.8151 29.5399 31.3271 29.1239C31.8471 28.6999 32.4391 28.3839 33.1031 28.1759C33.7751 27.9599 34.4951 27.8519 35.2631 27.8519Z" fill="black"/>
</svg>
