<svg width="50" height="50" viewBox="0 0 70 71" fill="none" xmlns="http://www.w3.org/2000/svg">
<circle cx="35" cy="35.3959" r="25" fill="#FFC300"/>
<circle cx="35" cy="35.3959" r="30" stroke="#7C05BF" stroke-opacity="0.3" stroke-width="10"/>
<path d="M35.5391 27.3518C36.3391 27.3518 37.0591 27.4678 37.6991 27.6998C38.3471 27.9238 38.8991 28.2398 39.3551 28.6478C39.8111 29.0478 40.1591 29.5198 40.3991 30.0638C40.6471 30.6078 40.7711 31.1958 40.7711 31.8278C40.7711 32.3798 40.7071 32.8678 40.5791 33.2918C40.4591 33.7078 40.2791 34.0718 40.0391 34.3838C39.8071 34.6958 39.5191 34.9598 39.1751 35.1758C38.8391 35.3918 38.4551 35.5718 38.0231 35.7158C39.0631 36.0438 39.8391 36.5438 40.3511 37.2158C40.8631 37.8878 41.1191 38.7318 41.1191 39.7478C41.1191 40.6118 40.9591 41.3758 40.6391 42.0398C40.3191 42.7038 39.8871 43.2638 39.3431 43.7198C38.7991 44.1678 38.1671 44.5078 37.4471 44.7398C36.7351 44.9718 35.9791 45.0878 35.1791 45.0878C34.3071 45.0878 33.5471 44.9878 32.8991 44.7878C32.2511 44.5878 31.6871 44.2918 31.2071 43.8998C30.7271 43.5078 30.3191 43.0278 29.9831 42.4598C29.6471 41.8918 29.3591 41.2358 29.1191 40.4918L30.4271 39.9518C30.6511 39.8558 30.8791 39.8078 31.1111 39.8078C31.3191 39.8078 31.5031 39.8518 31.6631 39.9398C31.8311 40.0278 31.9591 40.1558 32.0471 40.3238C32.1911 40.6038 32.3471 40.8798 32.5151 41.1518C32.6911 41.4238 32.8991 41.6678 33.1391 41.8838C33.3791 42.0918 33.6591 42.2638 33.9791 42.3998C34.3071 42.5278 34.6951 42.5918 35.1431 42.5918C35.6471 42.5918 36.0871 42.5118 36.4631 42.3518C36.8391 42.1838 37.1511 41.9678 37.3991 41.7038C37.6551 41.4398 37.8431 41.1478 37.9631 40.8278C38.0911 40.4998 38.1551 40.1718 38.1551 39.8438C38.1551 39.4278 38.1111 39.0518 38.0231 38.7158C37.9351 38.3718 37.7511 38.0798 37.4711 37.8398C37.1911 37.5998 36.7871 37.4118 36.2591 37.2758C35.7391 37.1398 35.0391 37.0718 34.1591 37.0718V34.9598C34.8871 34.9518 35.4911 34.8838 35.9711 34.7558C36.4511 34.6278 36.8311 34.4518 37.1111 34.2278C37.3991 33.9958 37.5991 33.7198 37.7111 33.3998C37.8231 33.0798 37.8791 32.7278 37.8791 32.3438C37.8791 31.5198 37.6551 30.8998 37.2071 30.4838C36.7591 30.0598 36.1471 29.8478 35.3711 29.8478C34.6671 29.8478 34.0831 30.0358 33.6191 30.4118C33.1551 30.7798 32.8311 31.2558 32.6471 31.8398C32.5511 32.1438 32.4191 32.3638 32.2511 32.4998C32.0831 32.6278 31.8631 32.6918 31.5911 32.6918C31.4631 32.6918 31.3271 32.6798 31.1831 32.6558L29.6231 32.3798C29.7431 31.5478 29.9751 30.8198 30.3191 30.1958C30.6631 29.5638 31.0911 29.0398 31.6031 28.6238C32.1231 28.1998 32.7151 27.8838 33.3791 27.6758C34.0511 27.4598 34.7711 27.3518 35.5391 27.3518Z" fill="black"/>
</svg>
